<svg id="svg-logo" xmlns="http://www.w3.org/2000/svg" width="89" height="29" viewBox="0 0 177 58">
    <style>.st0{fill:#FDC71B;} .st1{fill:#FC1209;} .st2{fill:#A7CF36;} .st3{fill:#00A5E3;} .st4{fill:#7F7F7F;}</style>
    <path class="st0" d="M27.856 29L17.24 18.382H.187v21.233h17.05z"/>
    <path class="st1" d="M29.188 27.668L39.803 17.05V0H18.57v17.05z"/>
    <path class="st2" d="M41.136 18.383L30.52 29l10.617 10.616h17.05V18.383z"/>
    <path class="st3" d="M29.188 30.33L18.57 40.95V58h21.234V40.948z"/>
    <g><path class="st4" d="M68.765 39.693V10.477h9.466c3.588 0 5.926.147 7.016.44 1.674.437 3.076 1.39 4.205 2.858 1.13 1.468 1.695 3.365 1.695 5.69 0 1.794-.326 3.302-.976 4.524-.653 1.22-1.48 2.18-2.483 2.878-1.003.698-2.022 1.16-3.06 1.386-1.407.28-3.446.418-6.117.418h-3.846v11.02h-5.9zm5.9-24.274v8.29h3.227c2.326 0 3.88-.153 4.664-.46.784-.304 1.398-.783 1.843-1.433.444-.65.667-1.408.667-2.272 0-1.063-.313-1.94-.937-2.63-.624-.69-1.415-1.124-2.37-1.296-.706-.134-2.12-.2-4.246-.2h-2.85zM108.246 39.693v-3.168c-.77 1.128-1.784 2.02-3.04 2.67-1.255.65-2.58.976-3.975.976-1.42 0-2.697-.31-3.826-.936-1.13-.625-1.946-1.5-2.45-2.63-.506-1.13-.758-2.69-.758-4.684V18.53h5.6v9.724c0 2.976.102 4.8.31 5.47.204.672.58 1.203 1.125 1.594.545.393 1.237.59 2.073.59.957 0 1.814-.264 2.57-.79.758-.523 1.276-1.175 1.556-1.952.278-.777.417-2.68.417-5.71V18.53h5.6v21.163h-5.2zM116.798 39.693V10.477h5.6v29.216h-5.6zM124.532 33.654l5.62-.856c.24 1.09.724 1.915 1.454 2.48s1.755.847 3.07.847c1.447 0 2.538-.265 3.268-.797.49-.37.736-.87.736-1.494 0-.426-.132-.777-.397-1.056-.28-.266-.904-.51-1.874-.738-4.518-.996-7.382-1.906-8.59-2.73-1.674-1.143-2.51-2.73-2.51-4.763 0-1.834.722-3.375 2.17-4.624 1.45-1.248 3.695-1.873 6.736-1.873 2.897 0 5.05.472 6.458 1.415 1.41.944 2.378 2.34 2.91 4.185l-5.282.977c-.225-.824-.653-1.455-1.285-1.894-.63-.438-1.532-.657-2.7-.657-1.475 0-2.53.206-3.17.617-.424.293-.636.67-.636 1.136 0 .398.186.737.558 1.016.504.372 2.25.897 5.23 1.574 2.985.678 5.067 1.508 6.25 2.49 1.168.998 1.753 2.386 1.753 4.166 0 1.94-.81 3.608-2.43 5.002-1.62 1.396-4.02 2.093-7.195 2.093-2.882 0-5.164-.584-6.846-1.752-1.68-1.17-2.78-2.758-3.298-4.764zM160.236 32.957l5.58.936c-.718 2.047-1.85 3.605-3.398 4.674-1.548 1.07-3.486 1.604-5.81 1.604-3.68 0-6.404-1.202-8.17-3.606-1.396-1.926-2.094-4.358-2.094-7.294 0-3.507.918-6.254 2.75-8.24 1.834-1.987 4.153-2.98 6.956-2.98 3.15 0 5.633 1.04 7.454 3.12 1.82 2.078 2.69 5.263 2.61 9.555h-14.03c.04 1.66.49 2.953 1.356 3.876.863.925 1.94 1.386 3.228 1.386.877 0 1.614-.24 2.213-.718.598-.478 1.05-1.248 1.356-2.31zm.318-5.66c-.04-1.62-.46-2.853-1.256-3.697-.796-.843-1.767-1.265-2.908-1.265-1.223 0-2.232.445-3.03 1.335-.797.89-1.19 2.1-1.175 3.627h8.37z"/></g>
    <g><path class="st4" d="M169.47 39.693V35.86h-1.368v-.78h3.665v.78h-1.365v3.833h-.93zM172.357 39.693V35.08h1.394l.837 3.146.827-3.147h1.398v4.613h-.866V36.06l-.915 3.633h-.896l-.913-3.632v3.633h-.863z"/></g>
</svg>